# xmcd
#
# Track frame offsets:
#	150
#	10937
#	25600
#	39900
#	57537
#	76842
#	91975
#	103637
#	121017
#	136375
#
# Disc length: 2088
#
# Revision: 1
# Processed by: cddbd v1.5.1PL0 Copyright (c) Steve Scherf et al.
# Submitted via: ExactAudioCopy v0.95a5
# Normalized: r0:DSETVAR1,TDELIM( - ),TSWAP
#
DISCID=6e08260a
DTITLE=Various Artist - Christmas Moments With Amy Grant and Friends
DYEAR=1999
DGENRE=Country
TTITLE0=Amy Grant - Santa's Reindeer Ride
TTITLE1=B.J. Thomas - God Bless The Children
TTITLE2=Pat Boone - On This Christmas Night
TTITLE3=Jeannie C. Riley - Joy To The World
TTITLE4=Eddy Raven - I'll Be Home For Christmas
TTITLE5=Anita Bryant - It Came Upon A Midnight Clear
TTITLE6=Gene Autry - Up On The Housetop
TTITLE7=Tennessee Ernie Ford - Born A Child In Bethlehem
TTITLE8=Kitty Wells - Silent Night
TTITLE9=Eric Champion - Christmas Kind Of World
EXTD=
EXTT0=
EXTT1=
EXTT2=
EXTT3=
EXTT4=
EXTT5=
EXTT6=
EXTT7=
EXTT8=
EXTT9=
PLAYORDER=
